<svg xmlns="http://www.w3.org/2000/svg" xmlns:xlink="http://www.w3.org/1999/xlink" width="1080" zoomAndPan="magnify" viewBox="0 0 810 809.999993" height="1080" preserveAspectRatio="xMidYMid meet" version="1.0"><defs><g/></defs><g fill="#18aa42" fill-opacity="1"><g transform="translate(13.248939, 444.925065)"><g><path d="M 61.34375 0 L 6.6875 0 L 6.6875 -85.09375 L 26.65625 -85.09375 L 26.65625 -17.84375 L 61.34375 -17.84375 Z M 61.34375 0 "/></g></g></g><g fill="#18aa42" fill-opacity="1"><g transform="translate(75.475283, 444.925065)"><g><path d="M 36.8125 1.34375 C 30.257812 1.34375 24.472656 -0.03125 19.453125 -2.78125 C 14.441406 -5.539062 10.539062 -9.425781 7.75 -14.4375 C 4.957031 -19.457031 3.5625 -25.316406 3.5625 -32.015625 C 3.5625 -38.484375 4.957031 -44.148438 7.75 -49.015625 C 10.539062 -53.890625 14.425781 -57.703125 19.40625 -60.453125 C 24.382812 -63.203125 30.1875 -64.578125 36.8125 -64.578125 C 43.425781 -64.578125 49.222656 -63.203125 54.203125 -60.453125 C 59.179688 -57.703125 63.066406 -53.890625 65.859375 -49.015625 C 68.648438 -44.148438 70.046875 -38.484375 70.046875 -32.015625 C 70.046875 -25.316406 68.664062 -19.476562 65.90625 -14.5 C 63.15625 -9.519531 59.289062 -5.632812 54.3125 -2.84375 C 49.332031 -0.0507812 43.5 1.34375 36.8125 1.34375 Z M 36.8125 -14.71875 C 41.039062 -14.71875 44.382812 -16.296875 46.84375 -19.453125 C 49.300781 -22.617188 50.53125 -26.804688 50.53125 -32.015625 C 50.53125 -36.921875 49.300781 -40.914062 46.84375 -44 C 44.382812 -47.082031 41.039062 -48.625 36.8125 -48.625 C 32.644531 -48.625 29.273438 -47.097656 26.703125 -44.046875 C 24.140625 -41.003906 22.859375 -36.992188 22.859375 -32.015625 C 22.859375 -26.734375 24.140625 -22.53125 26.703125 -19.40625 C 29.273438 -16.28125 32.644531 -14.71875 36.8125 -14.71875 Z M 36.8125 -14.71875 "/></g></g></g><g fill="#18aa42" fill-opacity="1"><g transform="translate(149.076349, 444.925065)"><g><path d="M 35.90625 23.203125 C 32.632812 23.203125 29.378906 22.898438 26.140625 22.296875 C 22.910156 21.703125 19.882812 20.644531 17.0625 19.125 C 14.238281 17.601562 11.84375 15.46875 9.875 12.71875 C 7.90625 9.96875 6.582031 6.472656 5.90625 2.234375 L 24.640625 2.234375 C 25.679688 4.910156 27.113281 6.75 28.9375 7.75 C 30.757812 8.75 33.046875 9.25 35.796875 9.25 C 40.035156 9.25 43.066406 8.265625 44.890625 6.296875 C 46.710938 4.328125 47.625 2.039062 47.625 -0.5625 L 47.625 -9.03125 C 45.539062 -5.832031 43.160156 -3.675781 40.484375 -2.5625 C 37.804688 -1.445312 34.796875 -0.890625 31.453125 -0.890625 C 26.097656 -0.890625 21.335938 -2.28125 17.171875 -5.0625 C 13.015625 -7.851562 9.765625 -11.644531 7.421875 -16.4375 C 5.078125 -21.238281 3.90625 -26.648438 3.90625 -32.671875 C 3.90625 -38.773438 5.078125 -44.222656 7.421875 -49.015625 C 9.765625 -53.816406 13.015625 -57.609375 17.171875 -60.390625 C 21.335938 -63.179688 26.097656 -64.578125 31.453125 -64.578125 C 34.796875 -64.578125 37.804688 -64.019531 40.484375 -62.90625 C 43.160156 -61.789062 45.539062 -59.632812 47.625 -56.4375 L 47.625 -63.234375 L 66.359375 -63.234375 L 66.359375 -5.359375 C 66.359375 0.296875 65.554688 4.984375 63.953125 8.703125 C 62.359375 12.421875 60.164062 15.335938 57.375 17.453125 C 54.59375 19.578125 51.359375 21.066406 47.671875 21.921875 C 43.992188 22.773438 40.070312 23.203125 35.90625 23.203125 Z M 36.6875 -16.84375 C 40.851562 -16.84375 44.203125 -18.347656 46.734375 -21.359375 C 49.265625 -24.367188 50.53125 -28.140625 50.53125 -32.671875 C 50.53125 -37.285156 49.265625 -41.097656 46.734375 -44.109375 C 44.203125 -47.117188 40.851562 -48.625 36.6875 -48.625 C 32.53125 -48.625 29.1875 -47.082031 26.65625 -44 C 24.125 -40.914062 22.859375 -37.140625 22.859375 -32.671875 C 22.859375 -28.285156 24.101562 -24.550781 26.59375 -21.46875 C 29.09375 -18.382812 32.457031 -16.84375 36.6875 -16.84375 Z M 36.6875 -16.84375 "/></g></g></g><g fill="#18aa42" fill-opacity="1"><g transform="translate(221.562217, 444.925065)"><g><path d="M 15.5 -67.59375 C 12.601562 -67.59375 10.113281 -68.445312 8.03125 -70.15625 C 5.945312 -71.863281 4.90625 -74.203125 4.90625 -77.171875 C 4.90625 -80.148438 5.945312 -82.515625 8.03125 -84.265625 C 10.113281 -86.015625 12.601562 -86.890625 15.5 -86.890625 C 18.40625 -86.890625 20.894531 -86.015625 22.96875 -84.265625 C 25.050781 -82.515625 26.09375 -80.148438 26.09375 -77.171875 C 26.09375 -74.203125 25.050781 -71.863281 22.96875 -70.15625 C 20.894531 -68.445312 18.40625 -67.59375 15.5 -67.59375 Z M 24.875 0 L 6.140625 0 L 6.140625 -63.234375 L 24.875 -63.234375 Z M 24.875 0 "/></g></g></g><g fill="#18aa42" fill-opacity="1"><g transform="translate(252.563874, 444.925065)"><g><path d="M 36.46875 1.34375 C 29.925781 1.34375 24.179688 -0.03125 19.234375 -2.78125 C 14.296875 -5.539062 10.445312 -9.425781 7.6875 -14.4375 C 4.9375 -19.457031 3.5625 -25.316406 3.5625 -32.015625 C 3.5625 -38.484375 4.914062 -44.148438 7.625 -49.015625 C 10.34375 -53.890625 14.175781 -57.703125 19.125 -60.453125 C 24.070312 -63.203125 29.851562 -64.578125 36.46875 -64.578125 C 44.425781 -64.578125 51.171875 -62.550781 56.703125 -58.5 C 62.242188 -54.445312 65.832031 -49 67.46875 -42.15625 L 46.953125 -42.15625 C 45.316406 -47.21875 41.820312 -49.75 36.46875 -49.75 C 32.300781 -49.75 28.988281 -48.164062 26.53125 -45 C 24.082031 -41.84375 22.859375 -37.515625 22.859375 -32.015625 C 22.859375 -26.285156 24.082031 -21.785156 26.53125 -18.515625 C 28.988281 -15.242188 32.300781 -13.609375 36.46875 -13.609375 C 39.664062 -13.609375 42.097656 -14.332031 43.765625 -15.78125 C 45.441406 -17.226562 46.578125 -19.253906 47.171875 -21.859375 L 67.59375 -21.859375 C 66.03125 -14.578125 62.441406 -8.890625 56.828125 -4.796875 C 51.210938 -0.703125 44.425781 1.34375 36.46875 1.34375 Z M 36.46875 1.34375 "/></g></g></g><g fill="#18aa42" fill-opacity="1"><g transform="translate(323.154002, 444.925065)"><g/></g></g><g fill="#18aa42" fill-opacity="1"><g transform="translate(352.148349, 444.925065)"><g><path d="M 61.5625 -36.46875 L 76.28125 0 L 55.203125 0 L 42.828125 -32.796875 L 26.65625 -32.796875 L 26.65625 0 L 6.6875 0 L 6.6875 -85.09375 L 46.84375 -85.09375 C 52.050781 -85.09375 56.679688 -84.238281 60.734375 -82.53125 C 64.785156 -80.820312 67.960938 -78.085938 70.265625 -74.328125 C 72.566406 -70.578125 73.71875 -65.617188 73.71875 -59.453125 C 73.71875 -54.015625 72.617188 -49.363281 70.421875 -45.5 C 68.234375 -41.632812 65.28125 -38.625 61.5625 -36.46875 Z M 44.0625 -67.25 L 26.65625 -67.25 L 26.65625 -50.078125 L 44.0625 -50.078125 C 50.675781 -50.078125 53.984375 -52.976562 53.984375 -58.78125 C 53.984375 -64.425781 50.675781 -67.25 44.0625 -67.25 Z M 44.0625 -67.25 "/></g></g></g><g fill="#18aa42" fill-opacity="1"><g transform="translate(431.102204, 444.925065)"><g><path d="M 36.8125 1.34375 C 30.257812 1.34375 24.472656 -0.03125 19.453125 -2.78125 C 14.441406 -5.539062 10.539062 -9.425781 7.75 -14.4375 C 4.957031 -19.457031 3.5625 -25.316406 3.5625 -32.015625 C 3.5625 -38.484375 4.957031 -44.148438 7.75 -49.015625 C 10.539062 -53.890625 14.425781 -57.703125 19.40625 -60.453125 C 24.382812 -63.203125 30.1875 -64.578125 36.8125 -64.578125 C 43.425781 -64.578125 49.222656 -63.203125 54.203125 -60.453125 C 59.179688 -57.703125 63.066406 -53.890625 65.859375 -49.015625 C 68.648438 -44.148438 70.046875 -38.484375 70.046875 -32.015625 C 70.046875 -25.316406 68.664062 -19.476562 65.90625 -14.5 C 63.15625 -9.519531 59.289062 -5.632812 54.3125 -2.84375 C 49.332031 -0.0507812 43.5 1.34375 36.8125 1.34375 Z M 36.8125 -14.71875 C 41.039062 -14.71875 44.382812 -16.296875 46.84375 -19.453125 C 49.300781 -22.617188 50.53125 -26.804688 50.53125 -32.015625 C 50.53125 -36.921875 49.300781 -40.914062 46.84375 -44 C 44.382812 -47.082031 41.039062 -48.625 36.8125 -48.625 C 32.644531 -48.625 29.273438 -47.097656 26.703125 -44.046875 C 24.140625 -41.003906 22.859375 -36.992188 22.859375 -32.015625 C 22.859375 -26.734375 24.140625 -22.53125 26.703125 -19.40625 C 29.273438 -16.28125 32.644531 -14.71875 36.8125 -14.71875 Z M 36.8125 -14.71875 "/></g></g></g><g fill="#18aa42" fill-opacity="1"><g transform="translate(504.703269, 444.925065)"><g><path d="M 41.046875 1.34375 C 37.703125 1.34375 34.707031 0.785156 32.0625 -0.328125 C 29.425781 -1.441406 27.03125 -3.597656 24.875 -6.796875 L 24.875 0 L 6.140625 0 L 6.140625 -85.09375 L 24.875 -85.09375 L 24.875 -56.4375 C 27.03125 -59.632812 29.425781 -61.789062 32.0625 -62.90625 C 34.707031 -64.019531 37.703125 -64.578125 41.046875 -64.578125 C 46.472656 -64.578125 51.25 -63.179688 55.375 -60.390625 C 59.5 -57.609375 62.734375 -53.742188 65.078125 -48.796875 C 67.421875 -43.847656 68.59375 -38.140625 68.59375 -31.671875 C 68.59375 -25.203125 67.421875 -19.492188 65.078125 -14.546875 C 62.734375 -9.609375 59.5 -5.722656 55.375 -2.890625 C 51.25 -0.0664062 46.472656 1.34375 41.046875 1.34375 Z M 35.796875 -14.609375 C 39.960938 -14.609375 43.304688 -16.207031 45.828125 -19.40625 C 48.359375 -22.601562 49.625 -26.691406 49.625 -31.671875 C 49.625 -36.648438 48.359375 -40.71875 45.828125 -43.875 C 43.304688 -47.039062 39.960938 -48.625 35.796875 -48.625 C 31.710938 -48.625 28.382812 -47.0625 25.8125 -43.9375 C 23.25 -40.820312 21.96875 -36.734375 21.96875 -31.671875 C 21.96875 -26.546875 23.25 -22.421875 25.8125 -19.296875 C 28.382812 -16.171875 31.710938 -14.609375 35.796875 -14.609375 Z M 35.796875 -14.609375 "/></g></g></g><g fill="#18aa42" fill-opacity="1"><g transform="translate(577.077625, 444.925065)"><g><path d="M 36.8125 1.34375 C 30.257812 1.34375 24.472656 -0.03125 19.453125 -2.78125 C 14.441406 -5.539062 10.539062 -9.425781 7.75 -14.4375 C 4.957031 -19.457031 3.5625 -25.316406 3.5625 -32.015625 C 3.5625 -38.484375 4.957031 -44.148438 7.75 -49.015625 C 10.539062 -53.890625 14.425781 -57.703125 19.40625 -60.453125 C 24.382812 -63.203125 30.1875 -64.578125 36.8125 -64.578125 C 43.425781 -64.578125 49.222656 -63.203125 54.203125 -60.453125 C 59.179688 -57.703125 63.066406 -53.890625 65.859375 -49.015625 C 68.648438 -44.148438 70.046875 -38.484375 70.046875 -32.015625 C 70.046875 -25.316406 68.664062 -19.476562 65.90625 -14.5 C 63.15625 -9.519531 59.289062 -5.632812 54.3125 -2.84375 C 49.332031 -0.0507812 43.5 1.34375 36.8125 1.34375 Z M 36.8125 -14.71875 C 41.039062 -14.71875 44.382812 -16.296875 46.84375 -19.453125 C 49.300781 -22.617188 50.53125 -26.804688 50.53125 -32.015625 C 50.53125 -36.921875 49.300781 -40.914062 46.84375 -44 C 44.382812 -47.082031 41.039062 -48.625 36.8125 -48.625 C 32.644531 -48.625 29.273438 -47.097656 26.703125 -44.046875 C 24.140625 -41.003906 22.859375 -36.992188 22.859375 -32.015625 C 22.859375 -26.734375 24.140625 -22.53125 26.703125 -19.40625 C 29.273438 -16.28125 32.644531 -14.71875 36.8125 -14.71875 Z M 36.8125 -14.71875 "/></g></g></g><g fill="#18aa42" fill-opacity="1"><g transform="translate(650.67869, 444.925065)"><g><path d="M 40.59375 0 L 25.65625 0 C 21.039062 0 17.453125 -1.09375 14.890625 -3.28125 C 12.328125 -5.476562 11.046875 -8.585938 11.046875 -12.609375 L 11.046875 -48.625 L 2.34375 -48.625 L 2.34375 -63.234375 L 11.046875 -63.234375 L 11.046875 -85.09375 L 29.78125 -85.09375 L 29.78125 -63.234375 L 40.703125 -63.234375 L 40.703125 -48.625 L 29.78125 -48.625 L 29.78125 -18.953125 C 29.78125 -18.066406 30.003906 -17.210938 30.453125 -16.390625 C 30.898438 -15.578125 31.941406 -15.171875 33.578125 -15.171875 L 40.59375 -15.171875 Z M 40.59375 0 "/></g></g></g><g fill="#18aa42" fill-opacity="1"><g transform="translate(695.062381, 444.925065)"><g><path d="M 15.5 -67.59375 C 12.601562 -67.59375 10.113281 -68.445312 8.03125 -70.15625 C 5.945312 -71.863281 4.90625 -74.203125 4.90625 -77.171875 C 4.90625 -80.148438 5.945312 -82.515625 8.03125 -84.265625 C 10.113281 -86.015625 12.601562 -86.890625 15.5 -86.890625 C 18.40625 -86.890625 20.894531 -86.015625 22.96875 -84.265625 C 25.050781 -82.515625 26.09375 -80.148438 26.09375 -77.171875 C 26.09375 -74.203125 25.050781 -71.863281 22.96875 -70.15625 C 20.894531 -68.445312 18.40625 -67.59375 15.5 -67.59375 Z M 24.875 0 L 6.140625 0 L 6.140625 -63.234375 L 24.875 -63.234375 Z M 24.875 0 "/></g></g></g><g fill="#18aa42" fill-opacity="1"><g transform="translate(726.064039, 444.925065)"><g><path d="M 36.46875 1.34375 C 29.925781 1.34375 24.179688 -0.03125 19.234375 -2.78125 C 14.296875 -5.539062 10.445312 -9.425781 7.6875 -14.4375 C 4.9375 -19.457031 3.5625 -25.316406 3.5625 -32.015625 C 3.5625 -38.484375 4.914062 -44.148438 7.625 -49.015625 C 10.34375 -53.890625 14.175781 -57.703125 19.125 -60.453125 C 24.070312 -63.203125 29.851562 -64.578125 36.46875 -64.578125 C 44.425781 -64.578125 51.171875 -62.550781 56.703125 -58.5 C 62.242188 -54.445312 65.832031 -49 67.46875 -42.15625 L 46.953125 -42.15625 C 45.316406 -47.21875 41.820312 -49.75 36.46875 -49.75 C 32.300781 -49.75 28.988281 -48.164062 26.53125 -45 C 24.082031 -41.84375 22.859375 -37.515625 22.859375 -32.015625 C 22.859375 -26.285156 24.082031 -21.785156 26.53125 -18.515625 C 28.988281 -15.242188 32.300781 -13.609375 36.46875 -13.609375 C 39.664062 -13.609375 42.097656 -14.332031 43.765625 -15.78125 C 45.441406 -17.226562 46.578125 -19.253906 47.171875 -21.859375 L 67.59375 -21.859375 C 66.03125 -14.578125 62.441406 -8.890625 56.828125 -4.796875 C 51.210938 -0.703125 44.425781 1.34375 36.46875 1.34375 Z M 36.46875 1.34375 "/></g></g></g></svg>