<svg xmlns="http://www.w3.org/2000/svg" xmlns:xlink="http://www.w3.org/1999/xlink" width="1080" zoomAndPan="magnify" viewBox="0 0 810 809.999993" height="1080" preserveAspectRatio="xMidYMid meet" version="1.0"><defs><g/></defs><g fill="#18aa42" fill-opacity="1"><g transform="translate(209.124461, 424.962548)"><g><path d="M 30.671875 0 L 3.34375 0 L 3.34375 -42.546875 L 13.328125 -42.546875 L 13.328125 -8.921875 L 30.671875 -8.921875 Z M 30.671875 0 "/></g></g></g><g fill="#18aa42" fill-opacity="1"><g transform="translate(240.237633, 424.962548)"><g><path d="M 18.40625 0.671875 C 15.132812 0.671875 12.242188 -0.015625 9.734375 -1.390625 C 7.222656 -2.765625 5.269531 -4.707031 3.875 -7.21875 C 2.476562 -9.726562 1.78125 -12.65625 1.78125 -16 C 1.78125 -19.238281 2.476562 -22.070312 3.875 -24.5 C 5.269531 -26.9375 7.210938 -28.84375 9.703125 -30.21875 C 12.191406 -31.59375 15.09375 -32.28125 18.40625 -32.28125 C 21.707031 -32.28125 24.601562 -31.59375 27.09375 -30.21875 C 29.59375 -28.84375 31.535156 -26.9375 32.921875 -24.5 C 34.316406 -22.070312 35.015625 -19.238281 35.015625 -16 C 35.015625 -12.65625 34.328125 -9.738281 32.953125 -7.25 C 31.578125 -4.757812 29.644531 -2.816406 27.15625 -1.421875 C 24.664062 -0.0234375 21.75 0.671875 18.40625 0.671875 Z M 18.40625 -7.359375 C 20.519531 -7.359375 22.191406 -8.144531 23.421875 -9.71875 C 24.648438 -11.300781 25.265625 -13.394531 25.265625 -16 C 25.265625 -18.457031 24.648438 -20.457031 23.421875 -22 C 22.191406 -23.539062 20.519531 -24.3125 18.40625 -24.3125 C 16.320312 -24.3125 14.640625 -23.546875 13.359375 -22.015625 C 12.078125 -20.492188 11.4375 -18.488281 11.4375 -16 C 11.4375 -13.363281 12.078125 -11.265625 13.359375 -9.703125 C 14.640625 -8.140625 16.320312 -7.359375 18.40625 -7.359375 Z M 18.40625 -7.359375 "/></g></g></g><g fill="#18aa42" fill-opacity="1"><g transform="translate(277.038166, 424.962548)"><g><path d="M 17.953125 11.59375 C 16.316406 11.59375 14.691406 11.441406 13.078125 11.140625 C 11.460938 10.847656 9.945312 10.320312 8.53125 9.5625 C 7.113281 8.800781 5.910156 7.734375 4.921875 6.359375 C 3.941406 4.984375 3.285156 3.234375 2.953125 1.109375 L 12.328125 1.109375 C 12.847656 2.453125 13.5625 3.375 14.46875 3.875 C 15.382812 4.375 16.53125 4.625 17.90625 4.625 C 20.019531 4.625 21.53125 4.128906 22.4375 3.140625 C 23.351562 2.160156 23.8125 1.019531 23.8125 -0.28125 L 23.8125 -4.515625 C 22.769531 -2.921875 21.578125 -1.84375 20.234375 -1.28125 C 18.898438 -0.726562 17.394531 -0.453125 15.71875 -0.453125 C 13.039062 -0.453125 10.660156 -1.144531 8.578125 -2.53125 C 6.503906 -3.925781 4.878906 -5.820312 3.703125 -8.21875 C 2.535156 -10.625 1.953125 -13.332031 1.953125 -16.34375 C 1.953125 -19.382812 2.535156 -22.101562 3.703125 -24.5 C 4.878906 -26.90625 6.503906 -28.800781 8.578125 -30.1875 C 10.660156 -31.582031 13.039062 -32.28125 15.71875 -32.28125 C 17.394531 -32.28125 18.898438 -32 20.234375 -31.4375 C 21.578125 -30.882812 22.769531 -29.8125 23.8125 -28.21875 L 23.8125 -31.625 L 33.1875 -31.625 L 33.1875 -2.671875 C 33.1875 0.148438 32.785156 2.488281 31.984375 4.34375 C 31.179688 6.207031 30.082031 7.664062 28.6875 8.71875 C 27.289062 9.78125 25.671875 10.523438 23.828125 10.953125 C 21.992188 11.378906 20.035156 11.59375 17.953125 11.59375 Z M 18.34375 -8.421875 C 20.425781 -8.421875 22.097656 -9.171875 23.359375 -10.671875 C 24.628906 -12.179688 25.265625 -14.070312 25.265625 -16.34375 C 25.265625 -18.644531 24.628906 -20.546875 23.359375 -22.046875 C 22.097656 -23.554688 20.425781 -24.3125 18.34375 -24.3125 C 16.257812 -24.3125 14.585938 -23.539062 13.328125 -22 C 12.066406 -20.457031 11.4375 -18.570312 11.4375 -16.34375 C 11.4375 -14.144531 12.054688 -12.273438 13.296875 -10.734375 C 14.546875 -9.191406 16.226562 -8.421875 18.34375 -8.421875 Z M 18.34375 -8.421875 "/></g></g></g><g fill="#18aa42" fill-opacity="1"><g transform="translate(313.2811, 424.962548)"><g><path d="M 7.75 -33.796875 C 6.300781 -33.796875 5.054688 -34.222656 4.015625 -35.078125 C 2.972656 -35.929688 2.453125 -37.101562 2.453125 -38.59375 C 2.453125 -40.082031 2.972656 -41.257812 4.015625 -42.125 C 5.054688 -43 6.300781 -43.4375 7.75 -43.4375 C 9.195312 -43.4375 10.441406 -43 11.484375 -42.125 C 12.523438 -41.257812 13.046875 -40.082031 13.046875 -38.59375 C 13.046875 -37.101562 12.523438 -35.929688 11.484375 -35.078125 C 10.441406 -34.222656 9.195312 -33.796875 7.75 -33.796875 Z M 12.4375 0 L 3.0625 0 L 3.0625 -31.625 L 12.4375 -31.625 Z M 12.4375 0 "/></g></g></g><g fill="#18aa42" fill-opacity="1"><g transform="translate(328.781929, 424.962548)"><g><path d="M 18.234375 0.671875 C 14.960938 0.671875 12.085938 -0.015625 9.609375 -1.390625 C 7.140625 -2.765625 5.21875 -4.707031 3.84375 -7.21875 C 2.46875 -9.726562 1.78125 -12.65625 1.78125 -16 C 1.78125 -19.238281 2.457031 -22.070312 3.8125 -24.5 C 5.175781 -26.9375 7.09375 -28.84375 9.5625 -30.21875 C 12.03125 -31.59375 14.921875 -32.28125 18.234375 -32.28125 C 22.210938 -32.28125 25.585938 -31.265625 28.359375 -29.234375 C 31.128906 -27.210938 32.921875 -24.492188 33.734375 -21.078125 L 23.484375 -21.078125 C 22.660156 -23.609375 20.910156 -24.875 18.234375 -24.875 C 16.148438 -24.875 14.492188 -24.082031 13.265625 -22.5 C 12.046875 -20.914062 11.4375 -18.75 11.4375 -16 C 11.4375 -13.132812 12.046875 -10.882812 13.265625 -9.25 C 14.492188 -7.613281 16.148438 -6.796875 18.234375 -6.796875 C 19.835938 -6.796875 21.054688 -7.160156 21.890625 -7.890625 C 22.722656 -8.617188 23.289062 -9.632812 23.59375 -10.9375 L 33.796875 -10.9375 C 33.015625 -7.289062 31.21875 -4.441406 28.40625 -2.390625 C 25.601562 -0.347656 22.210938 0.671875 18.234375 0.671875 Z M 18.234375 0.671875 "/></g></g></g><g fill="#18aa42" fill-opacity="1"><g transform="translate(364.076993, 424.962548)"><g/></g></g><g fill="#18aa42" fill-opacity="1"><g transform="translate(378.574166, 424.962548)"><g><path d="M 30.78125 -18.234375 L 38.140625 0 L 27.609375 0 L 21.40625 -16.390625 L 13.328125 -16.390625 L 13.328125 0 L 3.34375 0 L 3.34375 -42.546875 L 23.421875 -42.546875 C 26.023438 -42.546875 28.335938 -42.117188 30.359375 -41.265625 C 32.390625 -40.410156 33.976562 -39.046875 35.125 -37.171875 C 36.28125 -35.296875 36.859375 -32.8125 36.859375 -29.71875 C 36.859375 -27.007812 36.3125 -24.6875 35.21875 -22.75 C 34.125 -20.820312 32.644531 -19.316406 30.78125 -18.234375 Z M 22.03125 -33.625 L 13.328125 -33.625 L 13.328125 -25.03125 L 22.03125 -25.03125 C 25.332031 -25.03125 26.984375 -26.484375 26.984375 -29.390625 C 26.984375 -32.210938 25.332031 -33.625 22.03125 -33.625 Z M 22.03125 -33.625 "/></g></g></g><g fill="#18aa42" fill-opacity="1"><g transform="translate(418.051093, 424.962548)"><g><path d="M 18.40625 0.671875 C 15.132812 0.671875 12.242188 -0.015625 9.734375 -1.390625 C 7.222656 -2.765625 5.269531 -4.707031 3.875 -7.21875 C 2.476562 -9.726562 1.78125 -12.65625 1.78125 -16 C 1.78125 -19.238281 2.476562 -22.070312 3.875 -24.5 C 5.269531 -26.9375 7.210938 -28.84375 9.703125 -30.21875 C 12.191406 -31.59375 15.09375 -32.28125 18.40625 -32.28125 C 21.707031 -32.28125 24.601562 -31.59375 27.09375 -30.21875 C 29.59375 -28.84375 31.535156 -26.9375 32.921875 -24.5 C 34.316406 -22.070312 35.015625 -19.238281 35.015625 -16 C 35.015625 -12.65625 34.328125 -9.738281 32.953125 -7.25 C 31.578125 -4.757812 29.644531 -2.816406 27.15625 -1.421875 C 24.664062 -0.0234375 21.75 0.671875 18.40625 0.671875 Z M 18.40625 -7.359375 C 20.519531 -7.359375 22.191406 -8.144531 23.421875 -9.71875 C 24.648438 -11.300781 25.265625 -13.394531 25.265625 -16 C 25.265625 -18.457031 24.648438 -20.457031 23.421875 -22 C 22.191406 -23.539062 20.519531 -24.3125 18.40625 -24.3125 C 16.320312 -24.3125 14.640625 -23.546875 13.359375 -22.015625 C 12.078125 -20.492188 11.4375 -18.488281 11.4375 -16 C 11.4375 -13.363281 12.078125 -11.265625 13.359375 -9.703125 C 14.640625 -8.140625 16.320312 -7.359375 18.40625 -7.359375 Z M 18.40625 -7.359375 "/></g></g></g><g fill="#18aa42" fill-opacity="1"><g transform="translate(454.851626, 424.962548)"><g><path d="M 20.515625 0.671875 C 18.847656 0.671875 17.351562 0.394531 16.03125 -0.15625 C 14.707031 -0.71875 13.507812 -1.800781 12.4375 -3.40625 L 12.4375 0 L 3.0625 0 L 3.0625 -42.546875 L 12.4375 -42.546875 L 12.4375 -28.21875 C 13.507812 -29.8125 14.707031 -30.882812 16.03125 -31.4375 C 17.351562 -32 18.847656 -32.28125 20.515625 -32.28125 C 23.234375 -32.28125 25.625 -31.582031 27.6875 -30.1875 C 29.75 -28.800781 31.363281 -26.867188 32.53125 -24.390625 C 33.707031 -21.921875 34.296875 -19.070312 34.296875 -15.84375 C 34.296875 -12.601562 33.707031 -9.742188 32.53125 -7.265625 C 31.363281 -4.796875 29.75 -2.851562 27.6875 -1.4375 C 25.625 -0.03125 23.234375 0.671875 20.515625 0.671875 Z M 17.90625 -7.3125 C 19.988281 -7.3125 21.660156 -8.109375 22.921875 -9.703125 C 24.179688 -11.296875 24.8125 -13.34375 24.8125 -15.84375 C 24.8125 -18.332031 24.179688 -20.363281 22.921875 -21.9375 C 21.660156 -23.519531 19.988281 -24.3125 17.90625 -24.3125 C 15.851562 -24.3125 14.1875 -23.53125 12.90625 -21.96875 C 11.625 -20.40625 10.984375 -18.363281 10.984375 -15.84375 C 10.984375 -13.269531 11.625 -11.203125 12.90625 -9.640625 C 14.1875 -8.085938 15.851562 -7.3125 17.90625 -7.3125 Z M 17.90625 -7.3125 "/></g></g></g><g fill="#18aa42" fill-opacity="1"><g transform="translate(491.038804, 424.962548)"><g><path d="M 18.40625 0.671875 C 15.132812 0.671875 12.242188 -0.015625 9.734375 -1.390625 C 7.222656 -2.765625 5.269531 -4.707031 3.875 -7.21875 C 2.476562 -9.726562 1.78125 -12.65625 1.78125 -16 C 1.78125 -19.238281 2.476562 -22.070312 3.875 -24.5 C 5.269531 -26.9375 7.210938 -28.84375 9.703125 -30.21875 C 12.191406 -31.59375 15.09375 -32.28125 18.40625 -32.28125 C 21.707031 -32.28125 24.601562 -31.59375 27.09375 -30.21875 C 29.59375 -28.84375 31.535156 -26.9375 32.921875 -24.5 C 34.316406 -22.070312 35.015625 -19.238281 35.015625 -16 C 35.015625 -12.65625 34.328125 -9.738281 32.953125 -7.25 C 31.578125 -4.757812 29.644531 -2.816406 27.15625 -1.421875 C 24.664062 -0.0234375 21.75 0.671875 18.40625 0.671875 Z M 18.40625 -7.359375 C 20.519531 -7.359375 22.191406 -8.144531 23.421875 -9.71875 C 24.648438 -11.300781 25.265625 -13.394531 25.265625 -16 C 25.265625 -18.457031 24.648438 -20.457031 23.421875 -22 C 22.191406 -23.539062 20.519531 -24.3125 18.40625 -24.3125 C 16.320312 -24.3125 14.640625 -23.546875 13.359375 -22.015625 C 12.078125 -20.492188 11.4375 -18.488281 11.4375 -16 C 11.4375 -13.363281 12.078125 -11.265625 13.359375 -9.703125 C 14.640625 -8.140625 16.320312 -7.359375 18.40625 -7.359375 Z M 18.40625 -7.359375 "/></g></g></g><g fill="#18aa42" fill-opacity="1"><g transform="translate(527.839337, 424.962548)"><g><path d="M 20.296875 0 L 12.828125 0 C 10.523438 0 8.726562 -0.546875 7.4375 -1.640625 C 6.15625 -2.742188 5.515625 -4.296875 5.515625 -6.296875 L 5.515625 -24.3125 L 1.171875 -24.3125 L 1.171875 -31.625 L 5.515625 -31.625 L 5.515625 -42.546875 L 14.890625 -42.546875 L 14.890625 -31.625 L 20.359375 -31.625 L 20.359375 -24.3125 L 14.890625 -24.3125 L 14.890625 -9.484375 C 14.890625 -9.035156 15 -8.601562 15.21875 -8.1875 C 15.445312 -7.78125 15.96875 -7.578125 16.78125 -7.578125 L 20.296875 -7.578125 Z M 20.296875 0 "/></g></g></g><g fill="#18aa42" fill-opacity="1"><g transform="translate(550.031182, 424.962548)"><g><path d="M 7.75 -33.796875 C 6.300781 -33.796875 5.054688 -34.222656 4.015625 -35.078125 C 2.972656 -35.929688 2.453125 -37.101562 2.453125 -38.59375 C 2.453125 -40.082031 2.972656 -41.257812 4.015625 -42.125 C 5.054688 -43 6.300781 -43.4375 7.75 -43.4375 C 9.195312 -43.4375 10.441406 -43 11.484375 -42.125 C 12.523438 -41.257812 13.046875 -40.082031 13.046875 -38.59375 C 13.046875 -37.101562 12.523438 -35.929688 11.484375 -35.078125 C 10.441406 -34.222656 9.195312 -33.796875 7.75 -33.796875 Z M 12.4375 0 L 3.0625 0 L 3.0625 -31.625 L 12.4375 -31.625 Z M 12.4375 0 "/></g></g></g><g fill="#18aa42" fill-opacity="1"><g transform="translate(565.532011, 424.962548)"><g><path d="M 18.234375 0.671875 C 14.960938 0.671875 12.085938 -0.015625 9.609375 -1.390625 C 7.140625 -2.765625 5.21875 -4.707031 3.84375 -7.21875 C 2.46875 -9.726562 1.78125 -12.65625 1.78125 -16 C 1.78125 -19.238281 2.457031 -22.070312 3.8125 -24.5 C 5.175781 -26.9375 7.09375 -28.84375 9.5625 -30.21875 C 12.03125 -31.59375 14.921875 -32.28125 18.234375 -32.28125 C 22.210938 -32.28125 25.585938 -31.265625 28.359375 -29.234375 C 31.128906 -27.210938 32.921875 -24.492188 33.734375 -21.078125 L 23.484375 -21.078125 C 22.660156 -23.609375 20.910156 -24.875 18.234375 -24.875 C 16.148438 -24.875 14.492188 -24.082031 13.265625 -22.5 C 12.046875 -20.914062 11.4375 -18.75 11.4375 -16 C 11.4375 -13.132812 12.046875 -10.882812 13.265625 -9.25 C 14.492188 -7.613281 16.148438 -6.796875 18.234375 -6.796875 C 19.835938 -6.796875 21.054688 -7.160156 21.890625 -7.890625 C 22.722656 -8.617188 23.289062 -9.632812 23.59375 -10.9375 L 33.796875 -10.9375 C 33.015625 -7.289062 31.21875 -4.441406 28.40625 -2.390625 C 25.601562 -0.347656 22.210938 0.671875 18.234375 0.671875 Z M 18.234375 0.671875 "/></g></g></g></svg>